PathFileType	4	(X/Y/Z)	./resultDataOpenSim/trcMotMarkerGrf/sub06/qtm-12-01.trc
DataRate	CameraRate	NumFrames	NumMarkers	Units	OrigDataRate	OrigDataStartFrame	OrigNumFrames
250.000000	250.000000	13	24	m	250.000000	246	490
Frame#	Time	L.Toe.Tip			R.Toe.Tip			L.Ankle.Lat			R.Ankle.Lat			L.Ankle.Med			R.Ankle.Med			L.Heel			R.Heel			L.Knee.Lat			R.Knee.Lat			L.Knee.Med			R.Knee.Med			L.Thigh.Upper			R.Thigh.Upper			L.ASIS			R.ASIS			V.Sacral			L.Acromium			R.Acromium			C7			L.Elbow			R.Elbow			L.Wrist.Lat			R.Wrist.Lat
		X1	Y1	Z1	X2	Y2	Z2	X3	Y3	Z3	X4	Y4	Z4	X5	Y5	Z5	X6	Y6	Z6	X7	Y7	Z7	X8	Y8	Z8	X9	Y9	Z9	X10	Y10	Z10	X11	Y11	Z11	X12	Y12	Z12	X13	Y13	Z13	X14	Y14	Z14	X15	Y15	Z15	X16	Y16	Z16	X17	Y17	Z17	X18	Y18	Z18	X19	Y19	Z19	X20	Y20	Z20	X21	Y21	Z21	X22	Y22	Z22	X23	Y23	Z23	X24	Y24	Z24

246	0.98	0.13901012	0.0087984761	-0.049505489	0.75101492	0.12995084	0.091077944	0.02403432	0.06889024	-0.069146869	0.61130016	0.11983642	0.11418837	0.036045413	0.085856265	0.016196709	0.6287638	0.1489462	0.028577663	-0.048379469	0.057995571	-0.016532878	0.57043198	0.084151062	0.052113223	0.15273705	0.41749317	-0.09669711	0.52681148	0.5020196	0.12628111	0.14649141	0.4259666	0.027013274	0.50098951	0.47742741	0.0050449868	0.23734594	0.79291745	-0.16786902	0.30872143	0.79888362	0.1756475	0.32825989	0.83538869	-0.14088507	0.37713323	0.8505382	0.10167476	0.16930393	0.91846924	0.021512923	0.319988	1.3283392	-0.18846665	0.29856133	1.3147307	0.17237432	0.23173224	1.358502	-0.015040869	0.39831039	1.0048122	-0.25204354	0.12788672	1.0537573	0.22311716	0.64393722	1.0384998	-0.18960276	0.13898519	0.82776677	0.29848365
247	0.984	0.1390377	0.0087757395	-0.049548267	0.76577525	0.13189576	0.089821713	0.024763365	0.069655107	-0.069413054	0.62591969	0.11965608	0.11291754	0.036805244	0.086594345	0.01592086	0.64314023	0.14954709	0.027663663	-0.047824977	0.059480279	-0.016856681	0.58589437	0.083694207	0.050546534	0.156891	0.41708621	-0.09701609	0.53298229	0.49915866	0.12585483	0.15099608	0.42555306	0.026747086	0.50716769	0.47433645	0.0043346298	0.24297795	0.79203205	-0.16779384	0.31686011	0.79735068	0.17559074	0.33424111	0.83454408	-0.14131668	0.38474574	0.84944557	0.10100809	0.17674923	0.91717398	0.022149832	0.32623474	1.3275846	-0.18811274	0.30506534	1.3135923	0.17265511	0.23808707	1.3573742	-0.014641524	0.40675714	1.0045784	-0.25188085	0.13416813	1.0529205	0.22277729	0.65161075	1.0418925	-0.18815051	0.14322273	0.82729316	0.29930557
248	0.988	0.13906952	0.0087548168	-0.049590567	0.77966981	0.13393086	0.088570906	0.025541914	0.070438253	-0.06969665	0.63976536	0.11947678	0.11163077	0.03761197	0.087356343	0.015628787	0.65675934	0.15014325	0.026758614	-0.047237564	0.061015573	-0.017227929	0.60055019	0.083242291	0.048953038	0.16118505	0.4166227	-0.097343474	0.53931129	0.49637249	0.12544051	0.15565441	0.425078	0.02645654	0.51351484	0.47128496	0.0035534364	0.24867642	0.79112897	-0.16768577	0.32502882	0.79580336	0.17558042	0.34008511	0.83373227	-0.14167282	0.39235765	0.84834502	0.10034168	0.18437701	0.91568969	0.022649264	0.33248442	1.326821	-0.18773579	0.31160623	1.312427	0.17296038	0.24445927	1.356233	-0.014216467	0.41518273	1.0043563	-0.25170461	0.14059332	1.0520024	0.22250587	0.659193	1.045119	-0.18672759	0.14757276	0.82677428	0.30013858
249	0.992	0.13910899	0.0087375956	-0.04963024	0.79264092	0.13597539	0.087357283	0.026348996	0.071252417	-0.070004622	0.6527828	0.11924449	0.11031957	0.038511814	0.088170661	0.015327569	0.66954468	0.15065495	0.025822997	-0.046614202	0.06261449	-0.017651476	0.61432161	0.082719144	0.047365812	0.16560577	0.41611025	-0.097684706	0.54584633	0.49373099	0.1250205	0.16045974	0.42454488	0.026149212	0.52004817	0.46830406	0.0027000676	0.25444416	0.79019848	-0.16753925	0.33321292	0.79426308	0.17559737	0.34590335	0.83294181	-0.1419954	0.39998785	0.84723643	0.099693052	0.19286012	0.91362636	0.023203213	0.33873971	1.3260518	-0.18732792	0.31818527	1.3112369	0.17329647	0.2508541	1.3550827	-0.013758884	0.42359212	1.0041563	-0.25149476	0.14714326	1.0509894	0.22228918	0.66669241	1.0481767	-0.18532087	0.15217625	0.82622595	0.30098931
250	0.996	0.13915854	0.0087274609	-0.049668469	0.80464353	0.13791294	0.086227613	0.027161547	0.072113733	-0.070341595	0.66489521	0.11891158	0.10898815	0.039530308	0.089063322	0.015017812	0.68145246	0.15099993	0.024824297	-0.045946527	0.064290937	-0.018126516	0.62714229	0.082061852	0.045818155	0.1701401	0.41556154	-0.098055405	0.55262108	0.49129843	0.12457349	0.16540975	0.42395578	0.025836316	0.52674628	0.46543513	0.0017768691	0.26028841	0.78924109	-0.16736001	0.34142323	0.79277069	0.17561691	0.35185445	0.83215017	-0.14233426	0.40765549	0.84612121	0.099080279	0.20254414	0.91073585	0.023967195	0.34499575	1.3252841	-0.18688954	0.32481085	1.310024	0.17366903	0.25726867	1.3539293	-0.013257066	0.43198943	1.0039974	-0.25125946	0.15386077	1.0498446	0.22202701	0.67410938	1.0510585	-0.18392131	0.15718014	0.82565021	0.301861
251	1	0.13921587	0.008724576	-0.049708583	0.81567954	0.13959917	0.085199705	0.027987994	0.073028609	-0.070715851	0.67606234	0.11843659	0.10764187	0.040619416	0.090016273	0.014678249	0.69248612	0.15111237	0.023742311	-0.045219763	0.066053706	-0.018646487	0.63899748	0.081239264	0.04430236	0.17477849	0.41498808	-0.09847253	0.55965942	0.4891246	0.12407813	0.17050493	0.42330187	0.025519511	0.53359857	0.46273047	0.00079104681	0.26621997	0.78825929	-0.16715395	0.34971024	0.7913679	0.17562328	0.35799319	0.83134038	-0.14270022	0.41535573	0.84499542	0.098498461	0.21267234	0.90744891	0.02491985	0.35124321	1.3245208	-0.18642615	0.33149807	1.3087886	0.17407903	0.26369958	1.352778	-0.012706724	0.44035536	1.0038748	-0.25102619	0.1607812	1.0485607	0.22165259	0.68143813	1.0537611	-0.18253223	0.16255956	0.82502827	0.30274688
252	1.004	0.13927619	0.0087249995	-0.049754635	0.82579911	0.14089329	0.084261955	0.028873545	0.073992541	-0.071137458	0.68631026	0.11779222	0.10627222	0.041697367	0.090980845	0.014277623	0.70268032	0.15096388	0.022578634	-0.044420485	0.067908996	-0.019201063	0.64991453	0.080251025	0.04278254	0.17952768	0.41439713	-0.098932993	0.56696617	0.48722683	0.12351548	0.17575197	0.4225673	0.025189454	0.54060715	0.46024506	-0.00024750825	0.27224728	0.78725641	-0.16692798	0.35809386	0.79004984	0.17559438	0.36427142	0.83050839	-0.14307776	0.42307504	0.8438569	0.097928254	0.22191492	0.90464299	0.025878345	0.3574793	1.32376	-0.18594162	0.33825506	1.3075301	0.17452339	0.27015534	1.3516294	-0.012112399	0.44865646	1.0037453	-0.25082083	0.1678124	1.0472174	0.22128169	0.68867683	1.0562975	-0.18116491	0.16816036	0.82433308	0.30363164
253	1.008	0.13933843	0.0087254825	-0.049808909	0.83507062	0.14168674	0.083393705	0.029862425	0.07500407	-0.071607831	0.69570771	0.11696945	0.10486122	0.042744535	0.091941081	0.013804797	0.71207723	0.15055574	0.021346293	-0.043540438	0.069862585	-0.019782037	0.65992829	0.079109553	0.041230214	0.18440852	0.41379361	-0.099418808	0.57451078	0.48557917	0.12287488	0.18116369	0.4217515	0.024833197	0.54778341	0.45803607	-0.0013327453	0.2783731	0.78624747	-0.16669689	0.36649457	0.78874719	0.17549108	0.37063291	0.8296609	-0.14345766	0.43081245	0.84271578	0.097354852	0.22976036	0.90276492	0.026728438	0.36370909	1.3230038	-0.18543712	0.34507538	1.3062496	0.17499984	0.27665396	1.3504852	-0.011476633	0.45688697	1.0035634	-0.25065351	0.17479802	1.0459284	0.22112393	0.69583159	1.0586891	-0.17982938	0.17388847	0.82355315	0.30450451
254	1.012	0.13940542	0.0087263467	-0.049870769	0.84355744	0.14191445	0.082566376	0.030967407	0.076067825	-0.072121326	0.70432712	0.1159655	0.10339786	0.043817663	0.092929152	0.013273844	0.72071812	0.14989053	0.020050972	-0.042573541	0.071918947	-0.020391074	0.669066	0.077824191	0.039633532	0.18943441	0.41318632	-0.099924517	0.5822263	0.48412585	0.1221616	0.18673522	0.42089502	0.024429835	0.55512516	0.45614703	-0.0024585755	0.28459327	0.78525207	-0.16647816	0.37481396	0.7873968	0.17529221	0.37705198	0.82880765	-0.14384238	0.43857616	0.84159037	0.096771326	0.23675148	0.90159173	0.027501009	0.3699398	1.3222616	-0.18491108	0.35194832	1.3049513	0.1755068	0.28320192	1.3493531	-0.010797226	0.46507075	1.0033096	-0.25052039	0.18168632	1.0447298	0.22125616	0.70291523	1.060937	-0.17853004	0.17975755	0.82269705	0.30536355
255	1.016	0.13947884	0.0087295366	-0.049938685	0.85131642	0.14155295	0.08174421	0.032180217	0.077190668	-0.072675379	0.71221927	0.11476955	0.101886	0.044981685	0.09398438	0.012696673	0.72865529	0.14895478	0.018691915	-0.041516859	0.074082776	-0.0210403	0.67735571	0.076396307	0.037993341	0.19460242	0.41258721	-0.10045237	0.59002998	0.48281349	0.12139183	0.19242732	0.42007711	0.023949204	0.56259709	0.45459533	-0.0036090255	0.29089793	0.78428151	-0.16628829	0.38305379	0.78601968	0.17501941	0.38352617	0.8279548	-0.14423566	0.44637589	0.84049723	0.096176356	0.24364422	0.90071579	0.028234745	0.37617705	1.3215439	-0.18435995	0.35887353	1.303642	0.17604201	0.28978886	1.3482401	-0.010070838	0.47322935	1.0029858	-0.25041383	0.18854319	1.0435749	0.22159361	0.70994301	1.0630202	-0.17726746	0.1858084	0.82177773	0.30621043
256	1.02	0.13955681	0.0087357097	-0.050011664	0.85840215	0.14060786	0.080884234	0.03349658	0.078380386	-0.073264047	0.71941422	0.11336585	0.10034302	0.04625559	0.095121176	0.012066261	0.73594158	0.14772248	0.017277289	-0.040373798	0.076358915	-0.021743455	0.68483302	0.074824809	0.036326003	0.19990264	0.41200536	-0.10099467	0.59784234	0.48160957	0.12057138	0.19819854	0.41936312	0.023374154	0.57016515	0.45339581	-0.0047555285	0.29728008	0.78334003	-0.16614191	0.39129099	0.78469386	0.17471496	0.39006751	0.8271069	-0.14462892	0.4542214	0.83944614	0.095569629	0.25094173	0.89987172	0.02885731	0.38242099	1.3208549	-0.18378453	0.36585903	1.3023278	0.17660411	0.29640576	1.3471469	-0.0092946246	0.48136816	1.0026007	-0.25032865	0.19544524	1.0424093	0.22202749	0.71692479	1.0649206	-0.17603939	0.19206429	0.82080241	0.30704895
257	1.024	0.13963598	0.0087439263	-0.050087718	0.86486094	0.13910345	0.079936435	0.034923779	0.079640955	-0.073872816	0.7259405	0.11174389	0.098792196	0.047627225	0.096338039	0.011379562	0.742599	0.14616767	0.015833536	-0.039147201	0.078751215	-0.022500941	0.6915319	0.073110111	0.034662314	0.20533003	0.41144525	-0.10154333	0.60558982	0.4804932	0.11968735	0.20404787	0.41874434	0.022725916	0.57782084	0.45257483	-0.0058658301	0.30374567	0.78242727	-0.16603228	0.39957414	0.78347882	0.17440487	0.39669468	0.82627011	-0.14500007	0.46212359	0.83843774	0.094947762	0.25891492	0.89894013	0.029215871	0.38866969	1.3201929	-0.18319352	0.3729072	1.3010123	0.17719283	0.30305312	1.3460704	-0.0084689112	0.48948231	1.0021624	-0.25026231	0.20242188	1.0412091	0.22251012	0.72386306	1.0666333	-0.17484395	0.19853718	0.81977301	0.30788248
258	1.028	0.13971635	0.0087544014	-0.050163605	0.87072241	0.13707868	0.078860109	0.036463283	0.0809701	-0.074501222	0.73183563	0.10989859	0.097247983	0.049094616	0.097638039	0.010654274	0.74862601	0.14428036	0.014389071	-0.037822785	0.081262063	-0.023294079	0.69747343	0.071250899	0.033030938	0.21088637	0.41090659	-0.10210235	0.61320576	0.47943904	0.11873631	0.21000582	0.41814385	0.022061423	0.58556911	0.45214086	-0.006935386	0.31030966	0.78154251	-0.16592762	0.40789234	0.78239439	0.17408958	0.40341796	0.82545015	-0.14533309	0.47009166	0.83746447	0.0943039	0.26763352	0.89788177	0.029207409	0.39492945	1.3195549	-0.18259501	0.38001096	1.2996986	0.17780797	0.30973536	1.3450097	-0.0076001949	0.49756412	1.0016767	-0.25021343	0.20946538	1.0399874	0.22306154	0.73075852	1.0681577	-0.17368442	0.20523926	0.81868744	0.30870883
